<svg width="15" height="15" viewBox="0 0 15 15" fill="none" xmlns="http://www.w3.org/2000/svg">
<path fill-rule="evenodd" clip-rule="evenodd" d="M14.7802 13.719C15.0732 14.0121 15.0732 14.4872 14.7802 14.7802C14.4872 15.0733 14.0121 15.0733 13.719 14.7802L7.49999 8.56025L1.28097 14.7802C0.987926 15.0733 0.512814 15.0733 0.219775 14.7802C-0.0732648 14.4872 -0.0732648 14.0121 0.219775 13.719L6.43974 7.5L0.219775 1.28097C-0.0732648 0.987933 -0.0732648 0.512822 0.219775 0.219782C0.512814 -0.0732572 0.987926 -0.0732572 1.28097 0.219782L7.49999 6.43975L13.719 0.219782C14.0121 -0.0732572 14.4872 -0.0732572 14.7802 0.219782C15.0732 0.512822 15.0732 0.987933 14.7802 1.28097L8.56025 7.5L14.7802 13.719Z" fill="#121417"/>
</svg>
